<svg id="Layer_1" data-name="Layer 1" xmlns="http://www.w3.org/2000/svg" viewBox="0 0 203.64 36.84"><defs><style>.cls-1{fill:#1d7c55;}.cls-2{fill:#fff;}</style></defs><rect class="cls-1" width="203.64" height="36.84" rx="5.07"/><path class="cls-2" d="M169.57,142.09a.75.75,0,0,0-.75.75v4.53a.62.62,0,0,1-.62.62H135.28a.61.61,0,0,1-.61-.62v-4.53a.76.76,0,0,0-1.51,0v4.53a2.13,2.13,0,0,0,2.12,2.13H168.2a2.13,2.13,0,0,0,2.12-2.13v-4.53A.75.75,0,0,0,169.57,142.09Z" transform="translate(-49.92 -120.42)"/><path class="cls-2" d="M151.33,145.12h0l.53.53.53-.53h0l7.32-7.32a.75.75,0,1,0-1.06-1.07l-6,6V128.94a.75.75,0,0,0-1.5,0v13.83l-6.28-6.27a.75.75,0,0,0-1.06,0,.74.74,0,0,0,0,1.06Z" transform="translate(-49.92 -120.42)"/></svg>