<?xml version="1.0" encoding="utf-8"?>
<!-- Generator: Adobe Illustrator 26.0.2, SVG Export Plug-In . SVG Version: 6.00 Build 0)  -->
<svg version="1.1" id="Layer_1" xmlns="http://www.w3.org/2000/svg" xmlns:xlink="http://www.w3.org/1999/xlink" x="0px" y="0px"
	 viewBox="0 0 600 600" style="enable-background:new 0 0 600 600;" xml:space="preserve">
<style type="text/css">
	.st0{fill:#BCBBBD;}
</style>
<g>
	<path class="st0" d="M210.8,176.9c-19.4,0-41.8,8.9-59.7,22.4c-17.9,13.4-32.8,31.3-40.3,52.2L48.2,426
		c-4.5,11.9,1.5,20.9,13.4,20.9c11.9,0,23.9-9,28.3-20.9l10.2-28.2v0l22.4-62.2l21.2-58.8c6-16.4,16.4-31.3,29.8-41.8
		c14.9-11.9,34.3-17.9,53.7-17.9h25.4c13.4,0,22.4,6,26.8,16.4c3,10.4,13.4,16.4,26.9,16.4h89.5c10.4,0,20.9-3,29.8-10.5
		c1-0.7,2-1.4,3-2.2c7-5.4,12.8-12.6,16.8-20.9c0.4-0.8,0.7-1.5,1.1-2.3c7.5-20.9-3-37.3-23.9-37.3h-1.5h-31H210.8z"/>
	<path class="st0" d="M527,370.8h-59.8h-24.5h-30.6c-13.4,0-26.9,6-38.8,16.4c-11.9,10.4-25.4,16.4-38.8,16.4H180.9
		c-17.9,0-26.9-14.9-20.9-32.8c6-17.9,26.8-32.8,44.8-32.8h242h10.2c4.8,0,9.7-1.5,14-4.1v0c6.4-3.7,11.7-9.7,14.3-16.8
		c3-11.9-1.5-20.9-13.4-20.9h-2.6h-24.3H219.7c-31.4,0-64.4,19.4-85.3,46.1c-6.9,8.8-12.5,18.5-16.2,28.5c-3.7,10.2-5.1,20-4.5,28.8
		v0c0,0,0,0,0,0.1c1.7,27.1,21.9,45.7,52.2,45.7h247.7h27.7h58.8c20.9,0,43.3-16.4,50.7-37.3C558.4,388.7,547.9,370.8,527,370.8z"/>
</g>
</svg>
